<svg width="24" height="24" viewBox="0 0 24 24" fill="none" xmlns="http://www.w3.org/2000/svg">
<path d="M21.7094 20.2899L17.9994 16.6099C19.4395 14.8143 20.1369 12.5352 19.9482 10.2412C19.7595 7.94721 18.6991 5.81269 16.9849 4.27655C15.2708 2.74041 13.0332 1.91941 10.7323 1.98237C8.43145 2.04534 6.24214 2.98747 4.61456 4.61505C2.98698 6.24263 2.04485 8.43194 1.98189 10.7328C1.91893 13.0337 2.73992 15.2713 4.27606 16.9854C5.8122 18.6996 7.94672 19.76 10.2407 19.9487C12.5347 20.1374 14.8138 19.44 16.6094 17.9999L20.2894 21.6799C20.3824 21.7736 20.493 21.848 20.6148 21.8988C20.7367 21.9496 20.8674 21.9757 20.9994 21.9757C21.1314 21.9757 21.2621 21.9496 21.384 21.8988C21.5059 21.848 21.6165 21.7736 21.7094 21.6799C21.8897 21.4934 21.9904 21.2442 21.9904 20.9849C21.9904 20.7256 21.8897 20.4764 21.7094 20.2899ZM10.9994 17.9999C9.61495 17.9999 8.26157 17.5894 7.11042 16.8202C5.95928 16.051 5.06207 14.9578 4.53226 13.6787C4.00245 12.3996 3.86382 10.9921 4.13392 9.63427C4.40402 8.27641 5.0707 7.02912 6.04967 6.05016C7.02864 5.07119 8.27592 4.4045 9.63378 4.13441C10.9917 3.86431 12.3991 4.00293 13.6782 4.53275C14.9573 5.06256 16.0505 5.95977 16.8197 7.11091C17.5889 8.26206 17.9994 9.61544 17.9994 10.9999C17.9994 12.8564 17.2619 14.6369 15.9492 15.9497C14.6364 17.2624 12.8559 17.9999 10.9994 17.9999Z" fill="url(#paint0_linear_704_1088)"/>
<defs>
<linearGradient id="paint0_linear_704_1088" x1="1.97852" y1="1.979" x2="25.4283" y2="16.376" gradientUnits="userSpaceOnUse">
<stop stop-color="#F3F9FF"/>
<stop offset="1" stop-color="#F1F0FF"/>
</linearGradient>
</defs>
</svg>
